<svg width="54" height="54" viewBox="0 0 54 54" fill="none" xmlns="http://www.w3.org/2000/svg">
<circle cx="26.7696" cy="26.7696" r="26.7696" fill="#4C68FF"/>
<path d="M36.817 27.7212C37.2906 27.0702 37.5527 26.2726 37.5527 25.4427C37.5527 24.126 36.8452 22.8797 35.7062 22.1847C35.413 22.0058 35.0792 21.9116 34.7393 21.9119H27.9791L28.1483 18.3079C28.1877 17.4369 27.8917 16.61 27.3166 15.9795C27.0344 15.6687 26.6939 15.4215 26.3162 15.253C25.9385 15.0845 25.5315 14.9984 25.1206 15C23.6546 15 22.3578 16.0264 21.9688 17.4956L19.5472 26.6157H15.9021C15.4031 26.6157 15 27.035 15 27.5541V38.2284C15 38.7474 15.4031 39.1668 15.9021 39.1668H32.8533C33.1127 39.1668 33.3664 39.114 33.6004 39.0084C34.9423 38.4131 35.8077 37.0495 35.8077 35.5364C35.8077 35.1669 35.757 34.8032 35.6555 34.4513C36.1291 33.8003 36.3913 33.0027 36.3913 32.1728C36.3913 31.8033 36.3405 31.4396 36.2391 31.0877C36.7127 30.4367 36.9748 29.6391 36.9748 28.8092C36.9692 28.4397 36.9185 28.0731 36.817 27.7212ZM17.0298 37.0554V28.7271H19.3132V37.0554H17.0298ZM34.9705 26.7036L34.3531 27.2608L34.7449 28.0057C34.874 28.251 34.941 28.5266 34.9395 28.8063C34.9395 29.2901 34.7365 29.7505 34.3869 30.0672L33.7695 30.6244L34.1614 31.3693C34.2905 31.6146 34.3574 31.8901 34.3559 32.1698C34.3559 32.6537 34.1529 33.1141 33.8034 33.4308L33.186 33.988L33.5778 34.7328C33.7069 34.9782 33.7739 35.2537 33.7723 35.5334C33.7723 36.1903 33.4002 36.7827 32.8251 37.0525H21.1174V28.6332L23.9224 18.0616C23.9948 17.7906 24.15 17.5515 24.3647 17.3806C24.5794 17.2097 24.8418 17.1162 25.1121 17.1144C25.3263 17.1144 25.5378 17.1789 25.7069 17.3108C25.986 17.5278 26.1354 17.8563 26.1185 18.2052L25.8479 24.0233H34.7111C35.2129 24.343 35.523 24.8826 35.523 25.4427C35.523 25.9265 35.32 26.384 34.9705 26.7036Z" fill="white"/>
</svg>
