<svg width="142" height="49" viewBox="0 0 142 49" fill="none" xmlns="http://www.w3.org/2000/svg">
<path d="M11.0712 27.2595C11.1097 27.1737 11.2316 27.1737 11.2702 27.2595L14.1708 33.7224C14.1867 33.7577 14.2201 33.782 14.2586 33.7861L21.3014 34.5477C21.395 34.5578 21.4327 34.6737 21.3629 34.7369L16.1128 39.4927C16.0841 39.5187 16.0713 39.558 16.0792 39.5959L17.5313 46.5294C17.5506 46.6215 17.452 46.6932 17.3703 46.6464L11.2249 43.1228C11.1913 43.1035 11.15 43.1035 11.1164 43.1228L4.971 46.6464C4.88935 46.6932 4.79072 46.6215 4.81001 46.5294L6.2621 39.5959C6.27004 39.558 6.25728 39.5187 6.22857 39.4927L0.978406 34.7369C0.908646 34.6737 0.94632 34.5578 1.0399 34.5477L8.08276 33.7861C8.12126 33.782 8.15467 33.7577 8.17053 33.7224L11.0712 27.2595Z" fill="#E1E60A"/>
<path d="M40.8151 27.2595C40.8537 27.1737 40.9756 27.1737 41.0141 27.2595L43.9148 33.7224C43.9306 33.7577 43.964 33.782 44.0026 33.7861L51.0454 34.5477C51.139 34.5578 51.1767 34.6737 51.1069 34.7369L45.8567 39.4927C45.828 39.5187 45.8153 39.558 45.8232 39.5959L47.2753 46.5294C47.2946 46.6215 47.196 46.6932 47.1143 46.6464L40.9689 43.1228C40.9353 43.1035 40.894 43.1035 40.8604 43.1228L34.715 46.6464C34.6333 46.6932 34.5347 46.6215 34.554 46.5294L36.0061 39.5959C36.014 39.558 36.0012 39.5187 35.9725 39.4927L30.7224 34.7369C30.6526 34.6737 30.6903 34.5578 30.7839 34.5477L37.8267 33.7861C37.8652 33.782 37.8986 33.7577 37.9145 33.7224L40.8151 27.2595Z" fill="#E1E60A"/>
<path d="M70.5592 27.2595C70.5977 27.1737 70.7196 27.1737 70.7582 27.2595L73.6588 33.7224C73.6747 33.7577 73.7081 33.782 73.7466 33.7861L80.7894 34.5477C80.883 34.5578 80.9207 34.6737 80.8509 34.7369L75.6008 39.4927C75.5721 39.5187 75.5593 39.558 75.5672 39.5959L77.0193 46.5294C77.0386 46.6215 76.94 46.6932 76.8583 46.6464L70.7129 43.1228C70.6793 43.1035 70.638 43.1035 70.6044 43.1228L64.459 46.6464C64.3774 46.6932 64.2787 46.6215 64.298 46.5294L65.7501 39.5959C65.758 39.558 65.7453 39.5187 65.7166 39.4927L60.4664 34.7369C60.3967 34.6737 60.4343 34.5578 60.5279 34.5477L67.5708 33.7861C67.6093 33.782 67.6427 33.7577 67.6585 33.7224L70.5592 27.2595Z" fill="#E1E60A"/>
<path d="M100.303 27.2595C100.342 27.1737 100.464 27.1737 100.502 27.2595L103.403 33.7224C103.419 33.7577 103.452 33.782 103.491 33.7861L110.533 34.5477C110.627 34.5578 110.665 34.6737 110.595 34.7369L105.345 39.4927C105.316 39.5187 105.303 39.558 105.311 39.5959L106.763 46.5294C106.783 46.6215 106.684 46.6932 106.602 46.6464L100.457 43.1228C100.423 43.1035 100.382 43.1035 100.348 43.1228L94.203 46.6464C94.1214 46.6932 94.0227 46.6215 94.042 46.5294L95.4941 39.5959C95.5021 39.558 95.4893 39.5187 95.4606 39.4927L90.2104 34.7369C90.1407 34.6737 90.1783 34.5578 90.2719 34.5477L97.3148 33.7861C97.3533 33.782 97.3867 33.7577 97.4026 33.7224L100.303 27.2595Z" fill="#E1E60A"/>
<path d="M130.047 27.2595C130.086 27.1737 130.208 27.1737 130.246 27.2595L133.147 33.7224C133.163 33.7577 133.196 33.782 133.235 33.7861L140.277 34.5477C140.371 34.5578 140.409 34.6737 140.339 34.7369L135.089 39.4927C135.06 39.5187 135.047 39.558 135.055 39.5959L136.507 46.5294C136.527 46.6215 136.428 46.6932 136.346 46.6464L130.201 43.1228C130.167 43.1035 130.126 43.1035 130.092 43.1228L123.947 46.6464C123.865 46.6932 123.767 46.6215 123.786 46.5294L125.238 39.5959C125.246 39.558 125.233 39.5187 125.205 39.4927L119.954 34.7369C119.885 34.6737 119.922 34.5578 120.016 34.5477L127.059 33.7861C127.097 33.782 127.131 33.7577 127.147 33.7224L130.047 27.2595Z" fill="#E1E60A"/>
<path d="M16.0806 7.35781H20.7687V13.7539C20.0019 14.0037 19.2641 14.1809 18.5554 14.2855C17.8524 14.3901 17.0914 14.4423 16.2723 14.4423C14.3436 14.4423 12.8564 13.873 11.8107 12.7344C10.765 11.5899 10.2421 9.97784 10.2421 7.89808C10.2421 5.84737 10.8318 4.24398 12.0111 3.08791C13.1904 1.92604 14.8141 1.3451 16.8823 1.3451C18.2126 1.3451 19.4733 1.60071 20.6642 2.11194L19.9322 3.84604C18.8981 3.36967 17.8641 3.13148 16.83 3.13148C15.4706 3.13148 14.3959 3.55847 13.6058 4.41245C12.8157 5.26643 12.4207 6.43412 12.4207 7.91551C12.4207 9.47242 12.775 10.6575 13.4838 11.4708C14.1983 12.2784 15.2237 12.6821 16.5598 12.6821C17.2337 12.6821 17.9541 12.5979 18.7209 12.4294V9.14419H16.0806V7.35781ZM28.5068 4.45602C28.9193 4.45602 29.2592 4.48507 29.5264 4.54316L29.326 6.45155C29.0355 6.38183 28.7334 6.34698 28.4197 6.34698C27.6006 6.34698 26.9354 6.61421 26.4242 7.14867C25.9188 7.68313 25.6661 8.37735 25.6661 9.23133V14.2681H23.6182V4.6303H25.2216L25.4918 6.32955H25.5963C25.9159 5.75442 26.3312 5.29838 26.8425 4.96144C27.3595 4.6245 27.9143 4.45602 28.5068 4.45602ZM35.5304 14.4423C34.0316 14.4423 32.8581 14.0066 32.0099 13.1352C31.1675 12.258 30.7464 11.0526 30.7464 9.5189C30.7464 7.94456 31.1385 6.70716 31.9228 5.8067C32.707 4.90625 33.7847 4.45602 35.1557 4.45602C36.4279 4.45602 37.433 4.84235 38.1707 5.61499C38.9085 6.38764 39.2774 7.45076 39.2774 8.80434V9.91103H32.8552C32.8842 10.8463 33.1369 11.5667 33.6133 12.0721C34.0897 12.5717 34.7606 12.8215 35.6262 12.8215C36.1956 12.8215 36.7242 12.7692 37.2122 12.6647C37.706 12.5543 38.2346 12.3742 38.7982 12.1244V13.7888C38.2985 14.027 37.7931 14.1954 37.2819 14.2942C36.7707 14.393 36.1868 14.4423 35.5304 14.4423ZM35.1557 6.00713C34.505 6.00713 33.9822 6.21336 33.5871 6.62583C33.1979 7.03829 32.9655 7.63956 32.89 8.42964H37.2645C37.2529 7.63375 37.0612 7.03248 36.6894 6.62583C36.3176 6.21336 35.8063 6.00713 35.1557 6.00713ZM47.6342 14.2681L47.2247 12.9261H47.1549C46.6902 13.5128 46.2225 13.9137 45.752 14.1286C45.2814 14.3378 44.6772 14.4423 43.9395 14.4423C42.9925 14.4423 42.2518 14.1867 41.7174 13.6755C41.1887 13.1643 40.9244 12.441 40.9244 11.5057C40.9244 10.5123 41.2933 9.76289 42.0311 9.25748C42.7689 8.75206 43.893 8.47611 45.4034 8.42964L47.0678 8.37735V7.86322C47.0678 7.24743 46.9226 6.78849 46.6321 6.4864C46.3474 6.1785 45.903 6.02456 45.2989 6.02456C44.8051 6.02456 44.3316 6.09717 43.8785 6.24241C43.4253 6.38764 42.9896 6.55902 42.5713 6.75654L41.9091 5.29257C42.4319 5.01953 43.0041 4.8133 43.6257 4.67387C44.2474 4.52864 44.8341 4.45602 45.386 4.45602C46.6118 4.45602 47.5355 4.72325 48.1571 5.25772C48.7845 5.79218 49.0982 6.63164 49.0982 7.77608V14.2681H47.6342ZM44.5843 12.8738C45.3279 12.8738 45.9234 12.6676 46.3707 12.2551C46.8238 11.8368 47.0504 11.253 47.0504 10.5036V9.66704L45.813 9.71932C44.8486 9.75418 44.1457 9.91684 43.7042 10.2073C43.2685 10.492 43.0506 10.9306 43.0506 11.5231C43.0506 11.953 43.1784 12.2871 43.434 12.5253C43.6897 12.7576 44.0731 12.8738 44.5843 12.8738ZM55.5466 12.7867C56.0462 12.7867 56.5458 12.7082 57.0454 12.5514V14.0938C56.8189 14.1925 56.5255 14.2739 56.1653 14.3378C55.8109 14.4075 55.442 14.4423 55.0586 14.4423C53.1183 14.4423 52.1481 13.4199 52.1481 11.375V6.18141H50.8323V5.27515L52.244 4.52574L52.9411 2.48664H54.2046V4.6303H56.9496V6.18141H54.2046V11.3401C54.2046 11.8339 54.3266 12.1999 54.5706 12.4381C54.8204 12.6705 55.1458 12.7867 55.5466 12.7867ZM68.2343 14.2681H66.1516V3.31448H62.4046V1.5281H71.9813V3.31448H68.2343V14.2681ZM77.933 14.4423C76.4342 14.4423 75.2607 14.0066 74.4126 13.1352C73.5702 12.258 73.149 11.0526 73.149 9.5189C73.149 7.94456 73.5412 6.70716 74.3254 5.8067C75.1097 4.90625 76.1873 4.45602 77.5583 4.45602C78.8306 4.45602 79.8356 4.84235 80.5734 5.61499C81.3112 6.38764 81.6801 7.45076 81.6801 8.80434V9.91103H75.2578C75.2869 10.8463 75.5396 11.5667 76.0159 12.0721C76.4923 12.5717 77.1633 12.8215 78.0289 12.8215C78.5982 12.8215 79.1269 12.7692 79.6149 12.6647C80.1087 12.5543 80.6373 12.3742 81.2008 12.1244V13.7888C80.7012 14.027 80.1958 14.1954 79.6846 14.2942C79.1733 14.393 78.5895 14.4423 77.933 14.4423ZM77.5583 6.00713C76.9077 6.00713 76.3848 6.21336 75.9898 6.62583C75.6006 7.03829 75.3682 7.63956 75.2927 8.42964H79.6671C79.6555 7.63375 79.4638 7.03248 79.092 6.62583C78.7202 6.21336 78.209 6.00713 77.5583 6.00713ZM90.0369 14.2681L89.6273 12.9261H89.5576C89.0929 13.5128 88.6252 13.9137 88.1547 14.1286C87.6841 14.3378 87.0799 14.4423 86.3421 14.4423C85.3952 14.4423 84.6545 14.1867 84.12 13.6755C83.5914 13.1643 83.3271 12.441 83.3271 11.5057C83.3271 10.5123 83.696 9.76289 84.4337 9.25748C85.1715 8.75206 86.2957 8.47611 87.8061 8.42964L89.4705 8.37735V7.86322C89.4705 7.24743 89.3252 6.78849 89.0348 6.4864C88.7501 6.1785 88.3057 6.02456 87.7015 6.02456C87.2077 6.02456 86.7343 6.09717 86.2811 6.24241C85.828 6.38764 85.3923 6.55902 84.974 6.75654L84.3117 5.29257C84.8346 5.01953 85.4068 4.8133 86.0284 4.67387C86.65 4.52864 87.2368 4.45602 87.7887 4.45602C89.0144 4.45602 89.9381 4.72325 90.5597 5.25772C91.1872 5.79218 91.5009 6.63164 91.5009 7.77608V14.2681H90.0369ZM86.987 12.8738C87.7306 12.8738 88.326 12.6676 88.7734 12.2551C89.2265 11.8368 89.4531 11.253 89.4531 10.5036V9.66704L88.2157 9.71932C87.2513 9.75418 86.5484 9.91684 86.1068 10.2073C85.6711 10.492 85.4533 10.9306 85.4533 11.5231C85.4533 11.953 85.5811 12.2871 85.8367 12.5253C86.0923 12.7576 86.4757 12.8738 86.987 12.8738ZM98.2455 14.4423C96.7874 14.4423 95.6778 14.0183 94.9168 13.1701C94.1615 12.3161 93.7839 11.0932 93.7839 9.50147C93.7839 7.88065 94.179 6.63454 94.9691 5.76313C95.7649 4.89173 96.9123 4.45602 98.4111 4.45602C99.4278 4.45602 100.343 4.64483 101.156 5.02244L100.537 6.6694C99.6717 6.33245 98.9572 6.16398 98.3937 6.16398C96.7264 6.16398 95.8927 7.27067 95.8927 9.48404C95.8927 10.5646 96.099 11.3779 96.5114 11.924C96.9297 12.4643 97.5397 12.7344 98.3414 12.7344C99.2535 12.7344 100.116 12.5078 100.929 12.0547V13.8411C100.563 14.056 100.171 14.21 99.7531 14.3029C99.3406 14.3959 98.8381 14.4423 98.2455 14.4423ZM111.674 14.2681H109.617V8.3425C109.617 7.5989 109.466 7.0441 109.164 6.67811C108.868 6.31212 108.395 6.12912 107.744 6.12912C106.884 6.12912 106.251 6.38764 105.844 6.90468C105.443 7.4159 105.243 8.27569 105.243 9.48404V14.2681H103.195V0.708973H105.243V4.15103C105.243 4.70292 105.208 5.29257 105.138 5.91999H105.269C105.548 5.45524 105.934 5.09505 106.428 4.83944C106.928 4.58383 107.509 4.45602 108.171 4.45602C110.506 4.45602 111.674 5.63242 111.674 7.98522V14.2681ZM118.732 14.4423C117.234 14.4423 116.06 14.0066 115.212 13.1352C114.369 12.258 113.948 11.0526 113.948 9.5189C113.948 7.94456 114.34 6.70716 115.125 5.8067C115.909 4.90625 116.987 4.45602 118.358 4.45602C119.63 4.45602 120.635 4.84235 121.373 5.61499C122.11 6.38764 122.479 7.45076 122.479 8.80434V9.91103H116.057C116.086 10.8463 116.339 11.5667 116.815 12.0721C117.292 12.5717 117.963 12.8215 118.828 12.8215C119.397 12.8215 119.926 12.7692 120.414 12.6647C120.908 12.5543 121.437 12.3742 122 12.1244V13.7888C121.5 14.027 120.995 14.1954 120.484 14.2942C119.973 14.393 119.389 14.4423 118.732 14.4423ZM118.358 6.00713C117.707 6.00713 117.184 6.21336 116.789 6.62583C116.4 7.03829 116.167 7.63956 116.092 8.42964H120.466C120.455 7.63375 120.263 7.03248 119.891 6.62583C119.519 6.21336 119.008 6.00713 118.358 6.00713ZM129.695 4.45602C130.107 4.45602 130.447 4.48507 130.714 4.54316L130.514 6.45155C130.223 6.38183 129.921 6.34698 129.607 6.34698C128.788 6.34698 128.123 6.61421 127.612 7.14867C127.107 7.68313 126.854 8.37735 126.854 9.23133V14.2681H124.806V4.6303H126.409L126.68 6.32955H126.784C127.104 5.75442 127.519 5.29838 128.03 4.96144C128.547 4.6245 129.102 4.45602 129.695 4.45602Z" fill="#575859"/>
</svg>
